<?xml version="1.0" standalone="no"?>
<!DOCTYPE svg PUBLIC "-//W3C//DTD SVG 20010904//EN"
 "http://www.w3.org/TR/2001/REC-SVG-20010904/DTD/svg10.dtd">
<svg version="1.0" xmlns="http://www.w3.org/2000/svg"
 width="424.000000pt" height="424.000000pt" viewBox="0 0 424.000000 424.000000"
 preserveAspectRatio="xMidYMid meet">
<metadata>
Created by potrace 1.14, written by Peter Selinger 2001-2017
</metadata>
<g transform="translate(0.000000,424.000000) scale(0.100000,-0.100000)"
fill="#000000" stroke="none">
<path d="M1649 3975 c-116 -28 -143 -53 -714 -630 -551 -557 -588 -600 -616
-700 -26 -94 -16 -210 28 -305 21 -47 100 -130 576 -603 304 -301 575 -564
602 -583 127 -88 301 -97 445 -24 75 38 185 156 195 210 2 10 9 29 16 42 19
35 21 188 4 246 -31 103 -63 140 -430 507 -198 198 -368 370 -378 382 -21 25
-78 -38 458 503 284 287 311 321 341 434 28 106 1 256 -62 343 -112 154 -286
221 -465 178z"/>
<path d="M2360 3079 c-240 -67 -375 -318 -299 -558 27 -85 70 -135 441 -502
l380 -377 -57 -58 c-32 -33 -202 -205 -379 -384 -281 -283 -327 -333 -354
-390 -34 -70 -43 -107 -46 -185 -8 -167 93 -330 249 -401 134 -62 283 -53 410
24 22 13 289 274 593 580 517 521 556 562 590 630 32 67 36 83 39 167 5 177
-33 242 -292 497 -71 70 -298 293 -503 495 -205 201 -393 382 -419 400 -89 63
-247 91 -353 62z"/>
</g>
</svg>
